Coordinates
version=1
nRows=18
nColumns=28
inDegrees=yes

Units are S.I. units (second, meters, Newtons, ...)
If the header above contains a line with 'inDegrees', this indicates whether rotational values are in degrees (yes) or radians (no).

endheader
time	pelvis_tilt	pelvis_list	pelvis_rotation	pelvis_tx	pelvis_ty	pelvis_tz	hip_flexion_r	hip_adduction_r	hip_rotation_r	knee_angle_r	knee_rotation_r	knee_adduction_r	ankle_angle_r	subtalar_angle_r	mtp_angle_r	hip_flexion_l	hip_adduction_l	hip_rotation_l	knee_angle_l	knee_rotation_l	knee_adduction_l	ankle_angle_l	subtalar_angle_l	mtp_angle_l	lumbar_extension	lumbar_bending	lumbar_rotation
      0.29000000	      7.93507729	      9.81312649	   -100.02644566	     -0.21033091	      0.93559189	     -0.42326468	     20.90260799	     -9.61084113	     17.13922693	    -58.02546336	      6.51877100	      8.57562689	      2.73776603	      5.23370012	      1.42865947	     37.59477222	      8.62063225	      6.40177395	    -30.30781445	     -1.73493717	     -1.87211418	     11.17859938	    -14.15564260	    -10.84836194	      0.00000000	      0.00000000	      0.00000000
      0.30000000	      8.45353480	      9.48414779	    -99.74137066	     -0.20983068	      0.93710479	     -0.41188936	     22.30501090	    -10.37934103	     16.69207008	    -60.32799943	      5.85596694	      8.45519598	      2.84692260	      5.34562535	      1.57399191	     36.71766894	      9.36096731	      6.63308359	    -30.43832399	     -1.54730758	     -2.26798307	     11.69009636	    -14.16986787	    -10.98361004	      0.00000000	      0.00000000	      0.00000000
      0.31000000	      8.78881447	      9.47812726	    -99.66777655	     -0.20933279	      0.93851872	     -0.40107148	     23.91798213	    -10.92131509	     16.35505129	    -61.96178664	      6.06882636	      8.38156828	      3.01735728	      4.66217306	      1.83894803	     36.07468490	      9.76199573	      7.44917900	    -30.38347418	     -0.84794152	     -2.91297366	     11.99744857	    -14.17239578	    -11.13063388	      0.00000000	      0.00000000	      0.00000000
      0.32000000	      9.07662584	      9.43432248	    -99.29607792	     -0.20865425	      0.93992045	     -0.38984306	     25.30982076	    -11.53099141	     15.84204548	    -63.28706114	      6.04879463	      8.37799336	      3.25546850	      3.56663237	      2.08639454	     35.30527959	     10.31803818	      8.50651082	    -30.30249140	      0.21060733	     -3.52922087	     12.60936913	    -13.74117632	    -11.25946043	      0.00000000	      0.00000000	      0.00000000
      0.33000000	      9.25482880	      9.18016184	    -98.80162189	     -0.20800923	      0.94183190	     -0.37804683	     26.19381965	    -12.11677742	     15.29410991	    -64.04141178	      6.29456788	      8.46720522	      3.96666059	      1.85587783	      2.35401619	     34.15334784	     10.93093110	      9.30980113	    -30.11682994	      0.94674559	     -3.71450627	     13.31468877	    -12.86241813	    -11.30256725	      0.00000000	      0.00000000	      0.00000000
      0.34000000	      9.53145697	      8.86341186	    -98.31669368	     -0.20735578	      0.94375357	     -0.36644664	     27.16974779	    -12.85396820	     14.81059072	    -64.73415157	      6.31041872	      8.71291404	      4.34163719	      0.03230831	      2.61481453	     32.89281234	     11.66949041	      9.87661530	    -29.81414956	      1.52352992	     -3.71383273	     14.05349293	    -12.04736715	    -11.19990898	      0.00000000	      0.00000000	      0.00000000
      0.35000000	      9.50992492	      8.57269048	    -97.84690652	     -0.20741978	      0.94613660	     -0.35456047	     27.80401992	    -12.91293081	     14.31035472	    -64.86464602	      6.79259422	      8.57797810	      4.94355538	     -2.78229283	      2.65724398	     31.49262218	     11.99115089	     10.19247774	    -29.37257285	      1.59161119	     -3.63243996	     14.65160197	    -11.62941394	    -11.05542795	      0.00000000	      0.00000000	      0.00000000
      0.36000000	      9.75124597	      8.28089200	    -97.45647318	     -0.20740249	      0.94827668	     -0.34316298	     28.56971413	    -13.39559894	     14.25652319	    -64.73931843	      6.96773315	      8.90089322	      5.39128268	     -5.14959005	      2.55434790	     30.12741768	     12.56459480	     10.42530407	    -28.82202557	      1.61982486	     -3.50349928	     15.08758877	    -11.43185137	    -10.87896550	      0.00000000	      0.00000000	      0.00000000
      0.37000000	     10.08485624	      8.09995839	    -97.17021592	     -0.20725369	      0.94998648	     -0.33192104	     29.71343142	    -13.99489880	     14.22740255	    -64.66385256	      6.88981428	      9.21318073	      5.68094610	     -7.21768587	      2.53090093	     28.91329489	     13.11947334	     10.45299884	    -28.23655035	      1.65258085	     -3.42449006	     15.40025833	    -11.23675705	    -10.74082055	      0.00000000	      0.00000000	      0.00000000
      0.38000000	     10.05035387	      8.00044911	    -96.81538289	     -0.20761317	      0.95220926	     -0.32057695	     30.31204908	    -13.86441634	     14.29272184	    -63.71810233	      7.54927119	      9.45070927	      5.76144098	    -11.09824315	      2.01856588	     27.63291878	     13.25975706	     10.56732215	    -27.58261849	      1.44646673	     -3.27545252	     15.84002656	    -10.92937562	    -10.55763192	      0.00000000	      0.00000000	      0.00000000
      0.39000000	     10.53036957	      7.74301254	    -96.61383087	     -0.20763518	      0.95370013	     -0.30954777	     31.56074815	    -14.61713605	     14.38599045	    -63.42539693	      6.97280719	      9.76618359	      5.50256039	    -12.40599873	      1.58208998	     26.29894101	     13.96015067	     10.49147872	    -26.88421637	      1.72904050	     -3.01254864	     16.40206787	    -10.15394064	    -10.16676286	      0.00000000	      0.00000000	      0.00000000
      0.40000000	     10.77003231	      7.33169430	    -96.02348175	     -0.20724129	      0.95580706	     -0.29788364	     31.94271623	    -15.19704876	     14.42999585	    -62.44426627	      6.30817019	     10.19704525	      5.85895992	    -13.81824613	      1.20939056	     24.56072344	     14.57047845	     10.97332355	    -26.03179431	      1.82106333	     -2.78871375	     16.69552623	     -9.69340553	     -9.76770118	      0.00000000	      0.00000000	      0.00000000
      0.41000000	     11.06318660	      7.20991218	    -96.08640645	     -0.20791517	      0.95722670	     -0.28719540	     32.96628204	    -15.35665277	     15.11029236	    -61.39717124	      5.77433878	     10.59659861	      6.04316088	    -15.20953929	      0.86816238	     23.35023426	     14.80476344	     10.69521704	    -25.29054409	      1.84871847	     -2.67800981	     17.10818092	     -9.11208424	     -9.46061769	      0.00000000	      0.00000000	      0.00000000
      0.42000000	     11.22776147	      7.18249666	    -95.88056177	     -0.20815627	      0.95854740	     -0.27625321	     33.83285995	    -15.54969688	     15.45010100	    -60.15674330	      4.79796062	     10.87741266	      6.43038841	    -15.42636074	      0.74500165	     22.08712677	     15.02934888	     11.24709134	    -24.44652241	      2.04088410	     -2.71874976	     17.46890613	     -8.95502215	     -9.37391683	      0.00000000	      0.00000000	      0.00000000
      0.43000000	     11.24041367	      6.88750516	    -95.87793593	     -0.20898914	      0.96026560	     -0.26570911	     34.45892608	    -15.37217980	     15.75224846	    -58.66429018	      3.68985934	     10.87222635	      6.34046654	    -15.50958994	      0.71939784	     20.57843695	     14.96630048	     11.40357294	    -23.55695005	      2.25070410	     -2.76689001	     17.85970623	     -8.31796299	     -9.04280900	      0.00000000	      0.00000000	      0.00000000
      0.44000000	     11.36490761	      6.68814773	    -95.79968953	     -0.20964774	      0.96142412	     -0.25502742	     34.93761011	    -15.34049610	     16.29244300	    -57.06666088	      2.89945883	     10.96912550	      7.27184214	    -15.10924452	      0.48765573	     19.18858291	     15.05614938	     11.52396562	    -22.70056697	      2.27458925	     -2.78129278	     18.21255529	     -7.98340001	     -8.70450533	      0.00000000	      0.00000000	      0.00000000
      0.45000000	     11.23881788	      6.43235557	    -95.87695310	     -0.21095185	      0.96290773	     -0.24423156	     35.10920538	    -14.69617711	     16.65845506	    -54.99244031	      2.28953954	     10.53314212	      7.59941545	    -14.88614710	     -0.00312774	     17.69934922	     14.76647393	     11.46790561	    -21.84205247	      2.03324119	     -2.81885442	     18.72642279	     -7.76584873	     -8.23430579	      0.00000000	      0.00000000	      0.00000000
      0.46000000	     11.17802582	      6.33318445	    -95.88526787	     -0.21191950	      0.96370056	     -0.23366783	     35.54405295	    -14.23339729	     16.84036594	    -52.92221730	      1.48751736	     10.03755256	      7.92032002	    -14.10696510	     -0.25243143	     16.47182490	     14.61560143	     11.58410036	    -21.11489963	      2.06175921	     -2.85992710	     19.08261062	     -7.44160824	     -7.83304805	      0.00000000	      0.00000000	      0.00000000
